 <svg version="1.0" xmlns="http://www.w3.org/2000/svg" width="700.000000pt" height="1121.000000pt" viewBox="0 0 700.000000 1121.000000" preserveAspectRatio="xMidYMid meet">
<metadata>
Created by potrace 1.12, written by Peter Selinger 2001-2015
</metadata>
<g transform="translate(0.000000,1121.000000) scale(0.100000,-0.100000)" fill="#ffffff" stroke="none">
<path d="M1470 11052 c0 -5 -235 -243 -521 -530 l-522 -523 24 -25 c34 -37
2176 -2186 3254 -3264 498 -498 905 -913 905 -921 0 -8 -942 -959 -2093 -2113
l-2094 -2098 171 -168 c94 -93 334 -333 534 -534 l363 -365 1359 1362 c747
749 1363 1367 1369 1372 5 6 106 106 223 223 117 118 271 271 341 340 71 70
183 182 250 250 67 68 473 475 902 906 429 431 789 793 799 805 l20 22 -197
197 c-108 108 -1032 1035 -2054 2059 -1022 1024 -1904 1908 -1960 1965 -56 57
-148 149 -205 204 -57 56 -128 128 -159 160 -157 164 -686 684 -697 684 -7 0
-12 -4 -12 -8z"></path>
</g>
</svg>