 <svg version="1.0" xmlns="http://www.w3.org/2000/svg" width="700.000000pt" height="684.000000pt" viewBox="0 0 700.000000 684.000000" preserveAspectRatio="xMidYMid meet">
<metadata>
Created by potrace 1.12, written by Peter Selinger 2001-2015
</metadata>
<g transform="translate(0.000000,684.000000) scale(0.100000,-0.100000)" fill="#ffffff" stroke="none">
<path d="M3395 6465 c-5 -2 -35 -10 -65 -19 -100 -30 -180 -78 -255 -151 -73
-73 -116 -143 -156 -255 l-24 -65 -3 -737 c-1 -406 -5 -738 -8 -738 -4 0 -76
41 -529 303 -104 60 -210 121 -235 134 -25 14 -65 38 -90 53 -155 95 -397 224
-451 241 -309 97 -652 -77 -753 -383 -45 -136 -45 -252 1 -390 52 -157 143
-259 328 -366 613 -353 782 -451 860 -497 50 -29 127 -74 173 -100 45 -26 82
-50 82 -55 0 -5 -46 -35 -102 -68 -57 -32 -222 -128 -368 -212 -146 -84 -323
-187 -395 -228 -71 -41 -182 -105 -245 -141 -203 -116 -301 -236 -350 -427
-44 -170 -8 -341 105 -499 143 -201 424 -292 665 -216 52 16 301 151 555 301
31 18 281 162 577 334 92 53 170 96 172 96 3 0 7 -332 8 -737 4 -823 -1 -770
76 -918 42 -80 142 -187 216 -230 91 -53 208 -85 314 -85 269 1 495 168 585
434 21 59 21 83 24 799 2 405 6 737 9 737 5 0 156 -87 459 -263 66 -39 165
-96 220 -127 55 -31 179 -103 275 -159 303 -177 389 -211 526 -211 86 0 201
28 281 68 163 83 279 236 318 420 20 98 19 163 -5 256 -52 204 -141 307 -390
450 -85 49 -225 129 -310 178 -171 99 -543 314 -575 332 -112 63 -185 109
-185 116 0 5 66 47 148 93 81 47 289 167 462 268 173 100 385 222 470 271 212
122 288 198 351 349 41 100 56 217 41 314 -49 317 -326 543 -641 522 -143 -9
-153 -14 -746 -357 -88 -51 -185 -106 -215 -123 -30 -16 -59 -33 -65 -37 -5
-4 -26 -17 -45 -27 -19 -11 -110 -63 -202 -117 -92 -53 -169 -96 -172 -96 -3
0 -6 318 -6 708 0 791 0 783 -69 927 -100 206 -314 336 -550 334 -47 0 -90 -2
-96 -4z"></path>
</g>
</svg>