 <svg version="1.0" xmlns="http://www.w3.org/2000/svg" width="700.000000pt" height="683.000000pt" viewBox="0 0 700.000000 683.000000" preserveAspectRatio="xMidYMid meet">
<metadata>
Created by potrace 1.12, written by Peter Selinger 2001-2015
</metadata>
<g transform="translate(0.000000,683.000000) scale(0.100000,-0.100000)" fill="#000000" stroke="none">
<path d="M3175 6155 c-89 -51 -149 -117 -181 -200 -24 -63 -27 -88 -34 -255
-4 -102 -11 -194 -15 -205 -12 -28 -78 -116 -106 -141 -34 -29 -162 -74 -213
-74 -25 0 -74 13 -115 30 -62 25 -87 44 -179 135 -59 57 -129 120 -157 137
-50 33 -50 33 -180 33 -127 0 -131 -1 -177 -30 -58 -36 -412 -383 -452 -442
-45 -67 -58 -167 -36 -281 12 -64 44 -108 176 -245 161 -167 194 -263 137
-404 -35 -86 -80 -139 -159 -184 l-59 -34 -195 -5 -195 -6 -77 -37 c-43 -20
-78 -41 -78 -46 0 -6 -11 -16 -24 -23 -13 -7 -42 -44 -63 -83 l-38 -70 -3
-299 -3 -299 32 -66 c42 -85 99 -145 157 -167 26 -10 58 -25 72 -33 19 -13 67
-17 225 -21 l201 -6 48 -29 c74 -45 122 -102 156 -182 61 -145 32 -232 -130
-401 -57 -59 -121 -133 -142 -164 -33 -50 -38 -68 -44 -135 -8 -100 7 -178 46
-239 39 -62 382 -399 447 -439 47 -29 51 -30 173 -30 l125 0 58 37 c32 20 106
82 164 138 86 83 119 108 174 131 88 37 138 37 234 -1 81 -32 130 -73 180
-148 29 -44 29 -45 36 -245 6 -185 9 -207 32 -262 34 -82 100 -153 181 -194
l66 -34 300 2 299 1 68 35 c79 41 116 77 164 160 l34 60 6 205 c5 202 5 206
34 255 45 79 93 124 174 161 153 71 255 39 435 -135 140 -135 174 -157 257
-170 85 -14 214 1 243 28 12 10 29 22 38 27 23 12 304 290 377 372 42 48 64
85 80 130 29 85 27 138 -9 231 -28 71 -40 88 -125 172 -148 146 -166 170 -186
256 -37 154 20 288 156 371 l60 37 200 5 c198 6 201 6 260 36 68 34 129 88
140 125 4 13 18 45 31 71 24 47 24 52 24 343 l0 297 -31 71 c-37 83 -81 131
-159 172 -54 29 -57 29 -261 35 l-206 5 -55 37 c-52 35 -112 98 -136 144 -23
45 -34 148 -22 215 14 80 41 118 180 259 98 99 109 115 133 182 43 121 44 137
6 235 -34 87 -34 87 -224 279 -104 105 -217 209 -249 230 l-59 39 -132 0
c-153 0 -130 12 -313 -158 -144 -135 -219 -177 -315 -177 -125 0 -247 79 -308
200 l-33 65 -6 200 -5 200 -38 61 c-48 77 -87 114 -161 153 l-59 31 -306 0
-306 -1 -60 -34z m620 -1609 c22 -9 61 -21 87 -26 47 -9 181 -68 228 -100 14
-10 54 -36 90 -59 140 -90 334 -315 377 -435 7 -22 20 -47 27 -56 7 -8 19 -40
26 -70 7 -30 22 -75 34 -100 19 -42 21 -62 21 -275 -1 -197 -4 -237 -19 -275
-10 -25 -24 -72 -32 -104 -9 -33 -26 -78 -39 -100 -12 -23 -26 -52 -30 -66 -4
-14 -18 -38 -31 -53 -13 -16 -24 -33 -24 -38 0 -18 -96 -136 -170 -208 -75
-74 -116 -106 -194 -149 -22 -13 -48 -30 -56 -37 -8 -7 -28 -17 -45 -21 -16
-4 -48 -17 -70 -29 -22 -13 -59 -26 -83 -30 -24 -4 -69 -16 -100 -27 -79 -29
-367 -38 -457 -14 -33 8 -89 23 -125 32 -56 14 -163 57 -210 85 -8 5 -33 18
-55 30 -44 24 -180 134 -235 190 -19 19 -51 57 -70 83 -19 26 -47 62 -62 81
-16 18 -28 37 -28 42 0 6 -11 26 -24 46 -48 70 -79 155 -122 332 -24 100 -26
122 -21 245 3 80 12 154 21 183 8 26 20 76 26 110 7 34 20 76 30 92 9 17 23
48 30 70 7 22 19 47 26 55 7 9 20 31 29 50 17 37 31 57 107 156 74 97 208 206
323 267 149 77 175 87 365 133 84 20 402 14 455 -10z"></path>
</g>
</svg>